<svg width="2423" height="391" viewBox="0 0 2423 391" fill="none" xmlns="http://www.w3.org/2000/svg">
<path d="M2111.26 310.623L2199.93 114.814H2227.63L2316.58 310.623H2287.21L2208.04 130.479H2219.23L2140.07 310.623H2111.26ZM2149.02 261.671L2156.57 239.293H2266.79L2274.9 261.671H2149.02Z" fill="#222222"/>
<path d="M1873.75 310.623V114.814H1896.69L1984.52 262.79H1972.21L2058.93 114.814H2081.87L2082.15 310.623H2055.29L2055.01 157.053H2061.45L1984.24 286.846H1971.37L1893.61 157.053H1900.6V310.623H1873.75Z" fill="#222222"/>
<path d="M1746.07 312.862C1730.96 312.862 1717.07 310.438 1704.39 305.589C1691.71 300.554 1680.7 293.561 1671.38 284.61C1662.05 275.472 1654.78 264.843 1649.56 252.721C1644.34 240.6 1641.73 227.266 1641.73 212.72C1641.73 198.174 1644.34 184.841 1649.56 172.719C1654.78 160.598 1662.05 150.061 1671.38 141.11C1680.89 131.972 1691.98 124.979 1704.67 120.131C1717.35 115.096 1731.33 112.578 1746.62 112.578C1762.1 112.578 1776.28 115.096 1789.14 120.131C1802.01 125.166 1812.92 132.718 1821.87 142.789L1804.53 160.132C1796.51 152.299 1787.74 146.611 1778.23 143.068C1768.91 139.339 1758.75 137.474 1747.74 137.474C1736.55 137.474 1726.11 139.339 1716.41 143.068C1706.9 146.798 1698.61 152.02 1691.52 158.733C1684.62 165.446 1679.21 173.465 1675.29 182.789C1671.56 191.927 1669.7 201.904 1669.7 212.72C1669.7 223.35 1671.56 233.327 1675.29 242.651C1679.21 251.789 1684.62 259.807 1691.52 266.707C1698.61 273.421 1706.9 278.642 1716.41 282.372C1725.93 286.102 1736.27 287.967 1747.46 287.967C1757.91 287.967 1767.88 286.381 1777.39 283.211C1787.09 279.855 1796.04 274.353 1804.25 266.707L1820.19 287.967C1810.5 296.172 1799.12 302.419 1786.07 306.708C1773.2 310.811 1759.87 312.862 1746.07 312.862ZM1793.34 284.33V211.601H1820.19V287.967L1793.34 284.33Z" fill="#222222"/>
<path d="M1571.08 310.623V114.814H1599.05V310.623H1571.08Z" fill="#222222"/>
<path d="M1454.4 312.862C1439.49 312.862 1425.22 310.624 1411.61 306.149C1397.99 301.487 1387.27 295.519 1379.44 288.246L1389.79 266.428C1397.25 272.955 1406.76 278.363 1418.32 282.652C1429.88 286.941 1441.91 289.085 1454.4 289.085C1465.78 289.085 1475.01 287.78 1482.1 285.169C1489.18 282.559 1494.41 279.015 1497.76 274.54C1501.12 269.878 1502.8 264.656 1502.8 258.875C1502.8 252.162 1500.56 246.754 1496.08 242.651C1491.79 238.548 1486.11 235.285 1479.02 232.86C1472.12 230.25 1464.48 228.012 1456.08 226.147C1447.69 224.282 1439.21 222.138 1430.63 219.713C1422.24 217.103 1414.5 213.839 1407.41 209.923C1400.51 206.007 1394.92 200.785 1390.63 194.258C1386.34 187.545 1384.19 178.967 1384.19 168.523C1384.19 158.453 1386.8 149.222 1392.03 140.83C1397.43 132.252 1405.64 125.446 1416.64 120.41C1427.83 115.189 1442 112.578 1459.16 112.578C1470.54 112.578 1481.82 114.07 1493.01 117.054C1504.2 120.037 1513.89 124.327 1522.1 129.921L1512.87 152.299C1504.48 146.705 1495.62 142.695 1486.29 140.271C1476.97 137.66 1467.93 136.355 1459.16 136.355C1448.16 136.355 1439.11 137.753 1432.03 140.551C1424.94 143.348 1419.72 147.078 1416.36 151.74C1413.19 156.402 1411.61 161.623 1411.61 167.404C1411.61 174.304 1413.75 179.806 1418.04 183.908C1422.52 188.011 1428.2 191.274 1435.1 193.699C1442.19 196.123 1449.93 198.361 1458.32 200.412C1466.71 202.277 1475.1 204.422 1483.5 206.846C1492.07 209.27 1499.81 212.44 1506.71 216.357C1513.8 220.273 1519.49 225.494 1523.78 232.021C1528.07 238.548 1530.21 246.94 1530.21 257.197C1530.21 267.08 1527.51 276.311 1522.1 284.89C1516.69 293.281 1508.3 300.088 1496.92 305.31C1485.73 310.345 1471.56 312.862 1454.4 312.862Z" fill="#222222"/>
<path d="M1077.1 150.685V119.174C1077.1 117.965 1076.62 116.804 1075.76 115.948L1045 85.2196C1044.14 84.3637 1042.98 83.8828 1041.77 83.8828H965.622C964.411 83.8828 963.249 84.3637 962.392 85.2196L931.633 115.948C930.776 116.804 930.296 117.963 930.296 119.174V181.317C930.296 183.088 931 184.787 932.254 186.04L961.771 215.527C963.025 216.78 964.726 217.483 966.499 217.483H1036.97C1040.67 217.483 1043.66 220.474 1043.66 224.164V272.23C1043.66 276.224 1040.42 279.463 1036.42 279.463H970.968C966.969 279.463 963.727 276.224 963.727 272.23V250.883H930.293V277.574C930.293 278.783 930.774 279.944 931.631 280.798L962.391 311.526C963.248 312.382 964.408 312.863 965.62 312.863H1041.77C1042.98 312.863 1044.14 312.382 1045 311.528L1075.76 280.8C1076.62 279.944 1077.1 278.784 1077.1 277.574V220.25C1077.1 218.479 1076.39 216.78 1075.14 215.527L1045.62 186.04C1044.37 184.787 1042.67 184.084 1040.89 184.084H970.42C966.726 184.084 963.732 181.093 963.732 177.403V124.518C963.732 120.523 966.974 117.285 970.973 117.285H1036.42C1040.42 117.285 1043.66 120.523 1043.66 124.518V150.684L1077.1 150.685Z" fill="#222222"/>
<path d="M752.588 117.285C751.384 117.285 750.222 117.766 749.365 118.622L718.605 149.35C717.75 150.205 717.267 151.367 717.267 152.57V312.862H750.702V157.913C750.702 153.918 753.939 150.686 757.937 150.686V117.285H752.588Z" fill="#222222"/>
<path d="M727.182 110.754C727.684 111.255 728.365 111.537 729.073 111.537H738.894C739.602 111.537 740.283 111.255 740.785 110.754L749.916 101.632C750.418 101.131 750.7 100.451 750.7 99.7428V89.9311C750.7 89.223 750.418 88.5429 749.916 88.0418L740.785 78.9195C740.283 78.4184 739.602 78.1367 738.894 78.1367H729.073C728.365 78.1367 727.684 78.4184 727.182 78.9195L718.051 88.0418C717.549 88.5429 717.267 89.223 717.267 89.9311V99.7413C717.267 100.449 717.549 101.129 718.051 101.63L727.182 110.754Z" fill="#222222"/>
<path d="M603.217 184.09C588.481 184.09 570.47 186.404 560.05 196.814L557.733 194.5C568.153 184.09 570.47 166.096 570.47 151.375V124.524C570.47 120.529 573.711 117.291 577.71 117.291H643.163C647.162 117.291 650.404 120.529 650.404 124.524V179.529C650.404 180.738 649.922 181.899 649.066 182.755C648.209 183.611 647.048 184.092 645.836 184.092L603.217 184.09ZM682.498 115.954L651.74 85.2274C650.883 84.3715 649.723 83.8906 648.511 83.8906H572.361C571.15 83.8906 569.988 84.3715 569.132 85.2274L538.373 115.954C537.517 116.81 537.035 117.97 537.035 119.18V312.866H570.47V217.491H648.513C649.723 217.491 650.885 217.01 651.742 216.154L682.502 185.426C683.358 184.57 683.84 183.41 683.84 182.2V119.18C683.84 117.971 683.358 116.81 682.502 115.954H682.498Z" fill="#222222"/>
<path d="M824.885 83.8906C823.675 83.8906 822.512 84.3715 821.656 85.2258L790.896 115.954C790.039 116.81 789.558 117.97 789.558 119.18V312.866H822.992V124.524C822.992 120.529 826.234 117.291 830.233 117.291H901.035V83.8906H824.883H824.885Z" fill="#222222"/>
<path d="M1256.83 116.704L1224.56 84.4703C1224.19 84.0968 1223.68 83.8867 1223.15 83.8867H1144.87C1144.34 83.8867 1143.83 84.0968 1143.46 84.4703L1111.19 116.704C1110.82 117.077 1110.61 117.583 1110.61 118.112V312.862H1144.04V242.664C1144.04 242.366 1144.29 242.123 1144.59 242.123H1162.94L1177.61 219.742C1178.58 218.271 1180.22 217.386 1181.98 217.386H1218.76C1221.64 217.386 1223.98 219.718 1223.98 222.596V312.866H1257.41V118.112C1257.41 117.584 1257.2 117.077 1256.83 116.704H1256.83ZM1178.9 189.871L1145.04 240.609C1144.74 241.055 1144.05 240.844 1144.05 240.308V121.951C1144.05 119.376 1146.14 117.287 1148.71 117.287H1219.31C1221.89 117.287 1223.98 119.376 1223.98 121.949V178.875C1223.98 181.752 1221.64 184.085 1218.76 184.085H1189.72C1185.37 184.085 1181.31 186.256 1178.9 189.871H1178.9Z" fill="#222222"/>
<path d="M294.001 310.273H247.088C246.314 310.273 245.688 310.9 245.688 311.673V358.585C245.688 359.358 246.314 359.985 247.088 359.985H294.001C294.774 359.985 295.401 359.358 295.401 358.585V311.673C295.401 310.9 294.774 310.273 294.001 310.273Z" fill="#192FC4"/>
<path d="M275.946 185.227H265.149C262.455 185.227 260.271 187.41 260.271 190.104V200.901C260.271 203.595 262.455 205.778 265.149 205.778H275.946C278.64 205.778 280.823 203.595 280.823 200.901V190.104C280.823 187.41 278.64 185.227 275.946 185.227Z" fill="#8F2791"/>
<path d="M154.375 170.648H107.461C106.688 170.648 106.061 171.275 106.061 172.048V218.96C106.061 219.733 106.688 220.36 107.461 220.36H154.375C155.148 220.36 155.775 219.733 155.775 218.96V172.048C155.775 171.275 155.148 170.648 154.375 170.648Z" fill="#192FC4"/>
<path d="M294.001 31.0156H247.088C246.314 31.0156 245.688 31.6424 245.688 32.4155V79.3274C245.688 80.1005 246.314 80.7272 247.088 80.7272H294.001C294.774 80.7272 295.401 80.1005 295.401 79.3274V32.4155C295.401 31.6424 294.774 31.0156 294.001 31.0156Z" fill="#192FC4"/>
<path d="M433.631 170.648H386.717C385.944 170.648 385.317 171.275 385.317 172.048V218.96C385.317 219.733 385.944 220.36 386.717 220.36H433.631C434.404 220.36 435.031 219.733 435.031 218.96V172.048C435.031 171.275 434.404 170.648 433.631 170.648Z" fill="#192FC4"/>
<path d="M381.856 280.529C381.856 294.14 370.825 305.171 357.214 305.171C343.603 305.171 332.576 294.14 332.576 280.529C332.576 266.918 343.607 255.893 357.214 255.893C370.821 255.893 381.856 266.923 381.856 280.529Z" fill="#ED1A39"/>
<path d="M159.455 280.529C159.455 294.14 170.486 305.171 184.097 305.171C197.704 305.171 208.735 294.14 208.735 280.529C208.735 266.923 197.704 255.893 184.097 255.893C170.486 255.893 159.455 266.923 159.455 280.529Z" fill="#ED1A39"/>
<path d="M159.23 108.829C159.23 95.2181 170.261 84.1875 183.872 84.1875C197.479 84.1875 208.51 95.2178 208.51 108.829C208.51 122.435 197.479 133.465 183.872 133.465C170.261 133.465 159.23 122.435 159.23 108.829Z" fill="#ED1A39"/>
<path d="M182.307 172.007V195.515C194.728 200.24 208.385 200.609 221.043 196.562L224.318 195.515V192.982C233.85 192.982 245.506 188.217 252.593 181.845C254.089 180.502 255.505 179.094 256.834 177.612C263.22 170.547 268.001 158.892 268.001 149.36L270.544 149.354C275.269 137.12 275.696 123.643 271.753 111.135L270.544 107.301L247.017 107.306C246.258 107.306 245.645 107.905 245.616 108.664C245.462 113.181 245.083 117.714 244.28 121.969C239.332 145.251 220.253 164.314 196.985 169.263C192.729 170.073 188.19 170.445 183.664 170.605C182.913 170.635 182.307 171.248 182.307 172.007Z" fill="#ED1A39"/>
<path d="M358.788 172.007V195.515C346.367 200.24 332.71 200.609 320.052 196.562L316.777 195.515V192.982C307.245 192.982 295.589 188.217 288.502 181.845C287.005 180.502 285.589 179.094 284.261 177.612C277.875 170.547 273.094 158.892 273.094 149.36L270.55 149.354C265.825 137.12 265.399 123.643 269.341 111.135L270.55 107.301L294.078 107.306C294.837 107.306 295.45 107.905 295.479 108.664C295.633 113.181 296.012 117.714 296.815 121.969C301.763 145.251 320.842 164.314 344.11 169.263C348.365 170.073 352.905 170.445 357.43 170.605C358.182 170.635 358.788 171.248 358.788 172.007Z" fill="#192FC4"/>
<path d="M182.307 218.993V195.485C194.728 190.76 208.385 190.391 221.043 194.438L224.318 195.485V198.018C233.85 198.018 245.506 202.784 252.593 209.155C254.089 210.498 255.505 211.906 256.834 213.388C263.22 220.453 268.001 232.109 268.001 241.64L270.544 241.646C275.269 253.88 275.696 267.357 271.753 279.865L270.544 283.699L247.017 283.694C246.258 283.694 245.645 283.095 245.616 282.336C245.462 277.819 245.083 273.286 244.28 269.031C239.332 245.749 220.253 226.686 196.985 221.737C192.729 220.927 188.19 220.555 183.664 220.395C182.913 220.365 182.307 219.752 182.307 218.993V218.993Z" fill="#192FC4"/>
<path d="M358.788 218.993V195.485C346.367 190.76 332.71 190.391 320.052 194.438L316.777 195.485V198.018C307.245 198.018 295.589 202.784 288.502 209.155C287.005 210.498 285.589 211.906 284.261 213.388C277.875 220.453 273.094 232.109 273.094 241.64L270.55 241.646C265.825 253.88 265.399 267.357 269.341 279.865L270.55 283.699L294.078 283.694C294.837 283.694 295.45 283.095 295.479 282.336C295.633 277.819 296.012 273.286 296.815 269.031C301.763 245.749 320.842 226.686 344.11 221.737C348.365 220.927 352.905 220.555 357.43 220.395C358.182 220.365 358.788 219.752 358.788 218.993V218.993Z" fill="#ED1A39"/>
<path d="M270.545 241.646C265.82 253.881 265.394 267.357 269.336 279.865L270.545 283.7L271.754 279.865C275.696 267.357 275.27 253.881 270.545 241.646Z" fill="#8F2791"/>
<path d="M320.047 194.438L316.772 195.485V195.516L320.047 196.563C332.705 200.61 346.362 200.241 358.783 195.516V195.485C346.362 190.76 332.705 190.391 320.047 194.438Z" fill="#8F2791"/>
<path d="M221.048 196.563L224.323 195.516V195.485L221.048 194.438C208.39 190.391 194.732 190.76 182.312 195.485V195.516C194.733 200.241 208.39 200.61 221.048 196.563Z" fill="#8F2791"/>
<path d="M271.754 111.135L270.545 107.301L269.336 111.135C265.394 123.643 265.82 137.12 270.545 149.354C275.27 137.12 275.696 123.643 271.754 111.135Z" fill="#8F2791"/>
<path d="M360.911 31.0156H329.703C327.996 31.0156 327.008 32.9501 328.008 34.3331L364.297 84.5011C364.826 85.2323 364.826 86.2213 364.297 86.9526L328.008 137.121C327.007 138.504 327.995 140.438 329.703 140.438H360.911C361.582 140.438 362.213 140.116 362.606 139.572L400.66 86.9526C401.189 86.2213 401.189 85.2323 400.66 84.5011L362.606 31.8816C362.213 31.3378 361.582 31.0156 360.911 31.0156Z" fill="#434343"/>
<path d="M377.207 34.8084L431.72 73.8366C433.104 74.8272 435.029 73.8383 435.029 72.1356V33.1074C435.029 31.9519 434.093 31.0156 432.938 31.0156H378.425C376.391 31.0156 375.553 33.6244 377.207 34.8084Z" fill="#858585"/>
<path d="M435.031 138.346V99.3181C435.031 97.6154 433.105 96.6265 431.722 97.6171L377.209 136.645C375.555 137.829 376.393 140.438 378.426 140.438H432.939C434.094 140.438 435.031 139.502 435.031 138.346Z" fill="#858585"/>
</svg>
